<?xml version="1.0" encoding="UTF-8"?> <!-- Generator: Adobe Illustrator 16.0.0, SVG Export Plug-In . SVG Version: 6.00 Build 0) --> <svg xmlns="http://www.w3.org/2000/svg" xmlns:xlink="http://www.w3.org/1999/xlink" id="Layer_1" x="0px" y="0px" width="612px" height="152px" viewBox="0 320.5 612 152" xml:space="preserve"> <title>fnr-logo-line</title> <path fill="#FFFFFF" d="M20.392,421.706h-2.777v-1.104c0-0.766-0.303-1.335-1.486-1.404H8.011v5.027c0,1.64,0.766,2.103,1.834,2.103 h1.94v2.786H0v-2.786h1.985c1.104,0,1.833-0.499,1.833-2.359v-11.106c0-1.78-0.765-2.252-1.833-2.252H0v-2.777h24.852v5.866h-2.777 v-1.675c0-0.766-0.338-1.336-1.406-1.405H8.011v5.795h8.083c1.184,0,1.486-0.569,1.486-1.406v-1.067h2.786L20.392,421.706z"></path> <path fill="#FFFFFF" d="M42.538,426.389h1.905v2.67H33.619v-2.67h1.985c0.801,0,1.416-0.383,1.451-1.778v-10.147 c0-1.371-0.614-1.78-1.451-1.78h-1.949v-2.671h10.851v2.671h-1.967c-0.837,0-1.406,0.385-1.451,1.78v10.174 C41.132,426.015,41.701,426.389,42.538,426.389z"></path> <path fill="#FFFFFF" d="M55.881,414.576c0-1.45-0.614-1.869-1.451-1.869h-1.914v-2.67h13.797c3.24,0,8.999,0.766,8.999,5.145 c0,2.821-2.056,4.192-4.61,4.809c1.371,2.021,2.67,4.041,4.041,6.062c0.22,0.261,0.55,0.402,0.89,0.383h2.101v2.671H73.15 c-0.726,0.052-1.424-0.287-1.834-0.891l-4.958-7.734h-6.364v4.041c0,1.486,0.569,1.869,1.406,1.869h1.94v2.67H52.516v-2.67h1.905 c0.837,0,1.406-0.383,1.451-1.869L55.881,414.576z M59.993,417.781h6.765c1.833,0,4.077-0.804,4.077-2.671 c0-2.172-2.439-2.438-6.293-2.438h-4.548L59.993,417.781L59.993,417.781z"></path> <path fill="#FFFFFF" d="M104.329,422.543h-2.857v-1.068c0-0.647-0.267-1.066-1.104-1.146h-6.783v6.063h11.02 c0.56,0.034,1.041-0.392,1.075-0.949c0.004-0.065,0.002-0.134-0.007-0.197v-1.604h2.821v5.456h-22.35v-2.67h1.905 c0.836,0,1.451-0.418,1.451-1.983v-9.979c0-1.371-0.614-1.78-1.451-1.78h-1.94v-2.671h22.413v5.448H105.7v-1.646 c0-0.613-0.267-1.032-1.139-1.104H93.612v4.878h6.783c0.89,0,1.104-0.418,1.104-1.104v-1.104h2.822L104.329,422.543z"></path> <path fill="#FFFFFF" d="M137.254,411.87v4.344h-2.848v-1.521c-0.383-1.604-3.561-2.521-6.231-2.521 c-1.673,0-5.412,0.534-5.412,2.521c0,1.982,3.694,2.401,5.492,2.67c4.451,0.686,10.557,1.521,10.557,6.098 c0,4.913-5.643,6.328-10.29,6.328c-2.554,0-7.699-0.766-9.907-2.323v-4.45h2.857v1.566c0,1.566,3.507,2.475,6.827,2.475 c3.32,0,6.515-0.89,6.515-2.893c0-2.172-3.507-2.822-6.747-3.24c-3.623-0.463-9.417-1.451-9.417-6.024 c0-4.346,6.48-5.411,9.533-5.411C130.774,409.503,135.198,410.232,137.254,411.87z"></path> <path fill="#FFFFFF" d="M157.077,412.787h-4.451c-1.139,0-1.673,0.454-1.673,1.486v1.369h-3.008V410h22.297v5.644h-3.008v-1.369 c0-0.952-0.499-1.45-1.522-1.486h-4.575v11.741c0,1.484,0.569,1.868,1.451,1.868h1.905v2.671h-10.806v-2.671h1.94 c0.89,0,1.451-0.384,1.451-1.868L157.077,412.787L157.077,412.787z"></path> <path fill="#FFFFFF" d="M191.373,409.28c7.512,0,13.609,4.608,13.609,10.254c0,5.644-6.097,10.29-13.609,10.29 c-7.513,0-13.681-4.611-13.681-10.29S183.798,409.28,191.373,409.28z M191.373,427.082c5.145,0,9.15-3.693,9.15-7.548 c0-3.855-4.005-7.513-9.15-7.513s-9.186,3.692-9.186,7.513c0,3.817,4.014,7.539,9.186,7.539V427.082z"></path> <path fill="#FFFFFF" d="M215.779,414.461c0-1.3-0.569-1.78-1.335-1.78h-1.985v-2.671h6.507l16.315,13.797v-9.229 c0-1.45-0.57-1.869-1.406-1.869h-1.94v-2.67h10.067v2.67h-1.94c-0.836,0-1.406,0.383-1.451,1.638v14.749h-2.973l-16.547-13.945 v9.486c0,1.371,0.569,1.78,1.451,1.78h1.905v2.67h-10.022v-2.67h1.94c0.837,0,1.406-0.383,1.406-1.869L215.779,414.461z"></path> <path fill="#FFFFFF" d="M268.607,422.543h-2.822v-1.068c0-0.647-0.267-1.066-1.104-1.146h-6.782v6.063h11.02 c0.559,0.034,1.041-0.392,1.075-0.949c0.004-0.065,0.001-0.134-0.007-0.197v-1.604h2.822v5.456h-22.386v-2.67h1.905 c0.837,0,1.451-0.418,1.451-1.983v-9.979c0-1.371-0.614-1.78-1.451-1.78h-1.94v-2.671h22.413v5.448h-2.822v-1.646 c0-0.613-0.267-1.032-1.148-1.104h-10.93v4.878h6.782c0.89,0,1.104-0.418,1.104-1.104v-1.104h2.822v7.165h-0.002V422.543z"></path> <path fill="#FFFFFF" d="M316.637,429.405c-2.479-0.238-4.895-0.938-7.121-2.058c-2.367,1.683-5.213,2.563-8.118,2.521 c-5.83,0-10.521-2.403-10.521-6.667c0-2.172,1.674-4.494,3.854-6.025c-0.909-1.271-1.426-2.782-1.487-4.344 c0-4.157,4.192-5.679,8.465-5.679c2.516-0.056,5,0.561,7.201,1.778v4.764h-2.821v-1.604c-0.267-1.484-2.323-2.172-3.658-2.172 c-3.16,0-4.878,0.65-4.878,3.054c0,3.563,5.795,7.281,10.559,10.176c0.521-0.862,0.798-1.852,0.801-2.857 c-0.071-0.809-0.199-1.612-0.382-2.403c0.764-0.169,1.541-0.27,2.32-0.303c0.604,0.021,1.199,0.11,1.78,0.269 c0.471,0.905,0.706,1.915,0.688,2.938c-0.086,1.628-0.656,3.193-1.64,4.495c1.521,0.957,3.198,1.63,4.958,1.983V429.405 L316.637,429.405z M295.274,422.89c0,2.671,2.786,4.311,6.062,4.311c1.685-0.062,3.31-0.646,4.646-1.674 c-3.011-1.714-5.88-3.662-8.581-5.83c-1.138,0.712-1.921,1.873-2.154,3.193H295.274z"></path> <path fill="#FFFFFF" d="M332.489,412.858c0-1.78-0.768-2.252-1.833-2.252h-1.985v-2.777h15.363c3.561,0,9.907,0.837,9.907,5.715 c0,3.124-2.403,4.655-5.263,5.341l4.646,6.936c0.304,0.351,0.757,0.536,1.219,0.499h2.172v2.783h-4.993 c-0.734,0.055-1.443-0.283-1.867-0.89l-5.607-8.803h-7.549v4.726c0,1.78,0.722,2.208,1.834,2.208h1.938v2.786h-11.758v-2.786h1.94 c1.065,0,1.779-0.454,1.833-2.208L332.489,412.858L332.489,412.858z M336.718,416.597h7.814c2.101,0,4.807-0.952,4.807-3.053 c0-2.67-2.821-2.938-7.28-2.938h-5.341V416.597z"></path> <path fill="#FFFFFF" d="M376.701,409.28c7.513,0,13.607,4.608,13.607,10.254c0,5.644-6.097,10.29-13.607,10.29 s-13.683-4.611-13.683-10.29S369.117,409.28,376.701,409.28z M376.701,427.082c5.145,0,9.148-3.693,9.148-7.548 c0-3.855-4.006-7.513-9.148-7.513c-5.146,0-9.188,3.692-9.188,7.513C367.514,423.353,371.521,427.082,376.701,427.082z"></path> <path fill="#FFFFFF" d="M396.986,429.103v-2.67h1.903c0.892,0,1.45-0.418,1.45-1.983v-9.986c0-1.371-0.604-1.78-1.45-1.78h-1.903 v-2.671h14.375c3.16,0,8.899,0.534,8.899,5.109c-0.078,1.327-0.752,2.548-1.834,3.32c2.062,0.752,3.45,2.687,3.508,4.878 c0,4.573-5.146,5.795-8.839,5.795L396.986,429.103z M404.419,412.707v4.843h7.699c1.484,0,3.658-0.383,3.658-2.403 c0-2.172-2.67-2.438-4.495-2.438L404.419,412.707L404.419,412.707z M413.32,426.389c1.37,0,4.154-0.766,4.154-3.054 c0-2.438-2.056-3.053-3.89-3.053h-9.133v6.097L413.32,426.389z"></path> <path fill="#FFFFFF" d="M447.563,422.543h-2.82v-1.068c0-0.647-0.269-1.066-1.104-1.146h-6.78v6.063h11.02 c0.559,0.034,1.04-0.392,1.075-0.949c0.004-0.065,0.001-0.134-0.008-0.197v-1.604h2.82v5.456h-22.387v-2.67h1.905 c0.837,0,1.451-0.418,1.451-1.983v-9.979c0-1.371-0.605-1.78-1.451-1.78h-1.94v-2.671h22.413v5.448h-2.822v-1.646 c0-0.613-0.267-1.032-1.146-1.104h-10.931v4.878h6.78c0.893,0,1.104-0.418,1.104-1.104v-1.104h2.821L447.563,422.543 L447.563,422.543z"></path> <path fill="#FFFFFF" d="M464.101,414.576c0-1.45-0.604-1.869-1.449-1.869h-1.94v-2.67h13.797c3.24,0,8.999,0.766,8.999,5.145 c0,2.821-2.057,4.192-4.61,4.809c1.37,2.021,2.672,4.041,4.04,6.062c0.223,0.261,0.552,0.402,0.893,0.383h2.101v2.671h-4.558 c-0.728,0.05-1.423-0.289-1.833-0.891l-4.958-7.734h-6.383v4.041c0,1.486,0.568,1.869,1.405,1.869h1.94v2.67h-10.788v-2.67h1.904 c0.837,0,1.406-0.383,1.451-1.869L464.101,414.576z M468.194,417.781h6.747c1.834,0,4.075-0.804,4.075-2.671 c0-2.172-2.438-2.438-6.293-2.438h-4.529V417.781z"></path> <path fill="#FFFFFF" d="M501.129,412.787h-4.451c-1.146,0-1.673,0.454-1.673,1.486v1.369h-3.009V410h22.297v5.644h-3.008v-1.369 c0-0.952-0.499-1.45-1.522-1.486h-4.573v11.741c0,1.484,0.567,1.868,1.449,1.868h1.904v2.671h-10.779v-2.671h1.94 c0.891,0,1.451-0.384,1.451-1.868L501.129,412.787z"></path> <path fill="#FFFFFF" d="M540.604,411.87v4.344h-2.819v-1.521c-0.383-1.604-3.563-2.521-6.23-2.521c-1.674,0-5.412,0.534-5.412,2.521 c0,1.982,3.693,2.401,5.492,2.67c4.45,0.686,10.559,1.521,10.559,6.098c0,4.913-5.646,6.328-10.29,6.328 c-2.557,0-7.699-0.766-9.907-2.323v-4.45h2.856v1.56c0,1.564,3.508,2.481,6.826,2.481c3.32,0,6.518-0.89,6.518-2.899 c0-2.172-3.507-2.822-6.747-3.24c-3.623-0.463-9.417-1.451-9.417-6.026c0-4.344,6.479-5.41,9.533-5.41 C534.125,409.503,538.513,410.232,540.604,411.87z"></path> <path fill="#FFFFFF" d="M562.902,409.28c7.512,0,13.607,4.608,13.607,10.254c0,5.644-6.098,10.29-13.607,10.29 c-7.515,0-13.708-4.611-13.708-10.29S555.318,409.28,562.902,409.28z M562.902,427.082c5.145,0,9.147-3.693,9.147-7.548 c0-3.855-4.005-7.513-9.147-7.513c-5.146,0-9.188,3.692-9.188,7.513C553.715,423.353,557.722,427.082,562.902,427.082z"></path> <path fill="#FFFFFF" d="M585.769,414.461c0-1.3-0.567-1.78-1.335-1.78h-1.983v-2.671h6.516l16.308,13.788v-9.222 c0-1.45-0.568-1.869-1.405-1.869h-1.94v-2.67h10.067v2.67h-1.94c-0.837,0-1.406,0.383-1.451,1.638v14.749h-2.973l-16.538-13.945 v9.486c0,1.371,0.569,1.78,1.451,1.78h1.904v2.67h-10.031v-2.67h1.938c0.838,0,1.415-0.383,1.415-1.869L585.769,414.461 L585.769,414.461z"></path> <path fill="#FFFFFF" d="M197.728,455.646h1.3c0.596,0,0.988-0.284,0.988-1.354v-6.685c0-0.988-0.418-1.273-0.988-1.273h-1.317 v-1.842h9.061c3.863,0,9.586,1.638,9.586,6.427c0,4.637-5.34,6.562-9.586,6.562h-9.043L197.728,455.646L197.728,455.646z M202.784,455.646h3.658c3.035,0,6.872-1.397,6.872-4.719c0-3.498-3.943-4.584-6.872-4.584h-3.658V455.646z"></path> <path fill="#FFFFFF" d="M224.885,455.646h1.3v1.843h-7.361v-1.843h1.317c0.543,0,0.961-0.26,0.988-1.192v-6.916 c0-0.891-0.418-1.192-0.988-1.192h-1.3v-1.843h7.361v1.843h-1.317c-0.57,0-0.961,0.26-0.988,1.192v6.916 C223.933,455.388,224.306,455.646,224.885,455.646z"></path> <path fill="#FFFFFF" d="M241.477,445.766v2.955h-1.914v-1.03c-0.258-1.088-2.439-1.71-4.254-1.71c-1.14,0-3.676,0.364-3.676,1.71 c0,1.344,2.51,1.629,3.729,1.778c3.035,0.463,7.183,1.032,7.183,4.147c0,3.347-3.836,4.3-6.996,4.3c-1.78,0-5.234-0.517-6.738-1.585 v-3.009h1.94v1.06c0,1.062,2.386,1.685,4.638,1.685s4.45-0.599,4.45-1.97c0-1.37-2.385-1.913-4.584-2.196 c-2.465-0.313-6.4-0.988-6.4-4.097c0-2.955,4.406-3.685,6.48-3.685C237.07,444.163,240.079,444.653,241.477,445.766z"></path> <path fill="#FFFFFF" d="M251.321,446.389h-2.982c-0.774,0-1.139,0.313-1.139,1.006v0.893h-2.047v-3.837h15.132v3.837h-2.047v-0.893 c0-0.647-0.338-0.986-1.032-1.006H254.1v8.013c0,1.015,0.392,1.271,0.988,1.271h1.264v1.842h-7.361v-1.842h1.317 c0.596,0,0.988-0.259,0.988-1.271L251.321,446.389z"></path> <path fill="#FFFFFF" d="M268.687,455.646h1.299v1.843h-7.361v-1.843h1.317c0.543,0,0.961-0.26,0.988-1.192v-6.916 c0-0.891-0.418-1.192-0.988-1.192h-1.299v-1.843h7.361v1.843h-1.317c-0.57,0-0.961,0.26-0.988,1.192v6.916 C267.734,455.388,268.117,455.646,268.687,455.646z"></path> <path fill="#FFFFFF" d="M284.451,455.646c0.703,0,1.015-0.364,1.015-1.112v-0.757h2.154v3.703h-15.247v-1.845h1.317 c0.543,0,0.89-0.229,0.988-1.139v-6.97c-0.053-0.893-0.418-1.193-0.988-1.193h-1.317v-1.842h7.334v1.842h-1.299 c-0.57,0-0.89,0.259-0.961,1.086v8.216L284.451,455.646z"></path> <path fill="#FFFFFF" d="M301.915,455.646c0.703,0,1.015-0.364,1.015-1.112v-0.757h2.154v3.703h-15.265v-1.845h1.317 c0.543,0,0.89-0.229,0.988-1.139v-6.97c-0.053-0.893-0.418-1.193-0.988-1.193h-1.299v-1.842h7.334v1.842h-1.299 c-0.57,0-0.89,0.259-0.961,1.086v8.216L301.915,455.646z"></path> <path fill="#FFFFFF" d="M313.316,455.646h1.3v1.843h-7.361v-1.843h1.317c0.543,0,0.961-0.26,0.986-1.192v-6.916 c0-0.891-0.419-1.192-0.986-1.192h-1.291v-1.843h7.359v1.843h-1.324c-0.569,0-0.961,0.26-0.987,1.192v6.916 C312.427,455.388,312.782,455.646,313.316,455.646z"></path> <path fill="#FFFFFF" d="M319.28,447.528c0-0.893-0.394-1.193-0.892-1.193h-1.345v-1.842h4.451l11.091,9.382v-6.231 c0-0.985-0.393-1.271-0.962-1.271H330.3v-1.843h6.845v1.843h-1.315c-0.569,0-0.961,0.258-0.987,1.112v9.996h-2.021l-11.277-9.524 v6.453c0,0.891,0.392,1.191,0.988,1.191h1.3v1.845h-6.818v-1.845h1.326c0.569,0,0.961-0.258,0.961-1.271L319.28,447.528z"></path> <path fill="#FFFFFF" d="M342.379,451.009c0,2.981,3.106,5.108,6.453,5.108c1.53,0,4.45-0.364,4.637-1.887v-0.623 c-0.053-0.892-0.442-1.112-0.985-1.112h-1.326v-1.869h7.359v1.869h-1.3c-0.543,0-0.891,0.229-0.962,1.166v0.523 c-0.053,3.135-4.976,3.729-7.592,3.729c-3.943,0-9.355-2.227-9.355-6.996c0-4.504,5.153-6.89,9.355-6.89 c1.78,0,5.233,0.487,6.711,1.584v3.009h-1.887v-1.061c-0.285-1.111-2.822-1.683-4.691-1.683 C345.565,445.899,342.379,447.955,342.379,451.009z"></path> <path fill="#FFFFFF" d="M372.678,451.009c0,2.981,3.115,5.108,6.429,5.108c1.867,0,4.323-0.623,4.637-1.709v-1.032h1.938v3.009 c-1.478,1.062-4.976,1.584-6.711,1.584c-3.941,0-9.354-2.225-9.354-6.996c0-4.504,5.128-6.89,9.354-6.89 c1.78,0,5.233,0.49,6.711,1.585v3.009h-1.938v-1.06c-0.284-1.112-2.795-1.685-4.637-1.685 C375.864,445.899,372.678,447.955,372.678,451.009z"></path> <path fill="#FFFFFF" d="M398.232,444.003c5.107,0,9.248,3.134,9.248,6.97c0,3.837-4.147,6.996-9.248,6.996 c-5.103,0-9.304-3.133-9.304-6.996C388.93,447.11,393.079,444.003,398.232,444.003z M398.232,456.108 c3.498,0,6.229-2.512,6.229-5.138s-2.724-5.1-6.229-5.1c-3.508,0-6.23,2.51-6.23,5.1 C392.002,453.563,394.708,456.108,398.232,456.108z"></path> <path fill="#FFFFFF" d="M413.97,456.162c-0.043,0.835-0.749,1.479-1.585,1.451c-0.793,0.063-1.485-0.53-1.551-1.324 c-0.063-0.794,0.531-1.488,1.325-1.551c0.075-0.006,0.148-0.006,0.226,0C413.208,454.717,413.903,455.342,413.97,456.162z"></path> <path fill="#FFFFFF" d="M293.022,386.075c-4.104-2.205-8.694-3.347-13.352-3.32c-5.482,0.039-10.876,1.391-15.729,3.943 l-1.691,0.988l1.78,0.89c4.831,2.267,10.089,3.481,15.425,3.56c4.721,0.11,9.368-1.185,13.352-3.72 c2.737,1.627,5.21,3.662,7.334,6.035l0.16,0.178h0.89l0.356-0.258l0.08-0.089c2.001-2.179,4.254-4.112,6.711-5.759 c4.064,2.429,8.725,3.677,13.458,3.605c5.36-0.07,10.646-1.284,15.497-3.561l1.735-0.89l-1.684-0.97 c-4.778-2.565-10.114-3.922-15.541-3.952c-4.606-0.053-9.146,1.133-13.139,3.436c-2.629-1.798-4.895-4.079-6.675-6.72 c1.936-2.03,4.091-3.839,6.426-5.394c3.916,2.362,8.415,3.58,12.986,3.516c5.519-0.088,10.944-1.408,15.889-3.863l1.709-0.89 l-1.7-0.952c-4.666-2.348-9.816-3.567-15.043-3.561c-4.735-0.054-9.399,1.16-13.512,3.516c-2.624-1.833-4.918-4.1-6.782-6.703 c2.622-4.252,4.012-9.148,4.015-14.144c-0.036-5.474-1.532-10.839-4.335-15.541l-0.89-1.326l-0.89,1.317 c-2.862,4.751-4.398,10.182-4.451,15.728c-0.039,4.849,1.338,9.603,3.961,13.681c-1.777,2.646-3.985,4.975-6.533,6.889 c-4.231-2.348-8.993-3.574-13.832-3.561c-5.209-0.004-10.347,1.215-14.999,3.561l-1.691,0.953l1.709,0.89 c4.948,2.457,10.382,3.777,15.906,3.863c4.455,0.127,8.849-1.045,12.648-3.374c2.462,1.487,4.708,3.305,6.676,5.403 C297.541,381.992,295.435,384.217,293.022,386.075z M279.493,389.983c-4.242-0.06-8.438-0.88-12.39-2.421 c3.979-1.72,8.261-2.627,12.595-2.67l0,0c3.798-0.01,7.551,0.817,10.993,2.421C287.234,389.11,283.388,390.027,279.493,389.983z M321.817,384.892L321.817,384.892c4.271,0.045,8.492,0.953,12.406,2.67c-3.976,1.547-8.194,2.367-12.462,2.421 c-3.834,0.052-7.624-0.824-11.046-2.555c3.452-1.67,7.237-2.541,11.072-2.545L321.817,384.892z M322.298,370.347v-0.258V370.347 c4.093,0.036,8.143,0.852,11.928,2.403c-4.063,1.692-8.415,2.598-12.816,2.67c-3.677,0.036-7.311-0.819-10.583-2.492 c3.573-1.71,7.483-2.593,11.447-2.582L322.298,370.347L322.298,370.347z M279.929,375.43c-4.408-0.073-8.763-0.979-12.835-2.67 c3.777-1.553,7.816-2.369,11.9-2.403l0,0c3.975-0.008,7.901,0.884,11.482,2.608c-3.275,1.66-6.903,2.503-10.574,2.457 L279.929,375.43z M297.553,351.059c0.039-4.51,1.143-8.948,3.222-12.951c2.002,3.959,3.063,8.328,3.098,12.764 c0,4.259-1.098,8.447-3.187,12.159c-2.064-3.656-3.153-7.782-3.16-11.981L297.553,351.059z M294.625,372.866l0.071-0.071l0,0 c2.299-1.75,4.306-3.853,5.946-6.23c1.646,2.378,3.66,4.481,5.964,6.23h-0.047l0,0c-2.134,1.394-4.104,3.024-5.875,4.86 l-0.205-0.116v0.054C298.708,375.807,296.745,374.222,294.625,372.866z M300.562,381.278v0.044l0,0 c1.641,2.282,3.619,4.302,5.866,5.99l-0.069,0.054l0,0c-2.049,1.343-3.942,2.91-5.646,4.673c-1.78-1.837-3.766-3.462-5.919-4.842 l0,0l0,0c2.217-1.672,4.17-3.667,5.795-5.919H300.562L300.562,381.278z"></path> </svg> 